<svg xmlns="http://www.w3.org/2000/svg" viewBox="0 0 160 114" fill="none">
<path d="M1.13435 40.836C1.07652 40.8792 1.03434 40.939 1.01386 41.0068C0.993376 41.0746 0.995647 41.1469 1.02035 41.2134C4.00084 49.1791 8.35832 63.4426 4.66624 76.2908L3.38462 81.2438C3.35968 81.3398 3.35773 81.44 3.37892 81.5369C3.4001 81.6337 3.44388 81.7246 3.5069 81.8026C3.56992 81.8806 3.65053 81.9436 3.74258 81.987C3.83463 82.0303 3.93571 82.0528 4.0381 82.0526H4.90244C5.05345 82.0533 5.20133 82.011 5.32761 81.9309C5.45389 81.8509 5.55299 81.7366 5.61254 81.6025C6.53948 79.5109 9.62503 70.696 9.86943 67.2526C9.87381 67.1655 9.91254 67.0832 9.97767 67.0228C10.0428 66.9624 10.1294 66.9284 10.2196 66.9278H23.7339C23.8188 66.9277 23.9008 66.9572 23.9649 67.011C24.029 67.0647 24.0708 67.139 24.0827 67.2202L25.4358 81.4188C25.4618 81.5948 25.5526 81.7558 25.6916 81.8722C25.8305 81.9886 26.0082 82.0527 26.1921 82.0526H27.0684C27.2531 82.0526 27.4304 81.9817 27.561 81.8554C27.6917 81.7291 27.7651 81.5578 27.7651 81.3792V67.0106C27.7654 66.9574 27.7782 66.905 27.8023 66.8572C27.9663 66.5259 28.5713 65.0041 27.7651 61.8862C27.0199 59.0052 26.4611 58.9836 25.5297 59.0052C22.0023 59.0866 12.1279 59.6059 10.2077 59.7082C10.1188 59.7127 10.0315 59.6839 9.96394 59.6279C9.89637 59.5718 9.85372 59.4928 9.84485 59.4071C9.57139 57.1305 7.82705 43.3345 5.41136 40.9995C5.14282 40.7154 4.81865 40.4857 4.45764 40.3236C4.09662 40.1614 3.70593 40.0701 3.30816 40.0549C2.91039 40.0397 2.51345 40.1009 2.14031 40.235C1.76718 40.3691 1.42526 40.5733 1.13435 40.836V40.836Z" fill="currentColor" stroke="#7C7272" stroke-linecap="round" stroke-linejoin="round"/>
<path d="M10.2546 66.9278H6.15646H10.2546ZM28.1376 66.9278H22.9217Z" fill="currentColor"/>
<path d="M28.1376 66.9278H22.9217M10.2546 66.9278H6.15646H10.2546Z" stroke="#7C7272" stroke-miterlimit="10"/>
<path d="M86.9525 81.7129L87.8146 84.6685C88.1198 85.7123 88.7861 86.3869 89.5171 86.3874L110.245 86.4026C110.975 86.4031 111.638 85.7294 111.946 84.6862L112.811 81.7318C113.078 80.8172 113.032 79.7493 112.689 78.9004C112.346 78.0514 111.752 77.5385 111.166 77.5381L111.172 67.1954C111.173 66.3794 110.754 65.7176 110.237 65.7172L108.366 65.7158C107.849 65.7154 107.43 66.3767 107.429 67.1927L107.423 77.5353L92.4522 77.5244L92.4583 67.1817C92.4588 66.3658 92.0403 65.7039 91.5235 65.7035L89.7048 65.7022C89.1879 65.7018 88.7687 66.3631 88.7682 67.179L88.6568 77.5216C88.0188 77.5212 87.4238 78.0344 87.08 78.8826C86.7362 79.7308 86.6899 80.7985 86.9525 81.7129V81.7129ZM106.474 101.175C106.472 103.897 105.523 106.17 104.131 107.533L104.141 89.3531L101.334 89.3511L101.322 108.559L98.5152 108.557L98.5272 89.349L95.7202 89.347L95.7088 107.53C94.2656 106.245 93.3723 103.888 93.3739 101.165L93.3815 89.3453L90.5727 89.3432L90.5663 101.163C90.5624 107.691 93.9108 112.986 98.0449 112.989L101.788 112.992C105.87 112.995 109.225 107.705 109.229 101.177L109.235 89.3569L106.43 89.3548L106.474 101.175Z" fill="currentColor" stroke="#7C7272"/>
<path d="M69.3469 81.2313L68.4955 84.1908C68.1941 85.2359 67.5302 85.9134 66.7992 85.9172L46.0714 86.0242C45.3416 86.028 44.6756 85.3573 44.3648 84.3154L43.4886 81.3648C43.2179 80.4514 43.26 79.3833 43.6 78.5329C43.94 77.6825 44.533 77.1669 45.1184 77.1639L45.075 66.8213C45.0715 66.0054 45.4877 65.3416 46.0044 65.339L47.8758 65.3293C48.3927 65.3266 48.8143 65.986 48.8177 66.802L48.8612 77.1446L63.8321 77.0673L63.7887 66.7247C63.7852 65.9088 64.2014 65.2451 64.7181 65.2424L66.5369 65.233C67.0537 65.2303 67.4754 65.8897 67.4788 66.7057L67.6275 77.0477C68.2655 77.0444 68.8624 77.555 69.2092 78.4016C69.5561 79.2483 69.6062 80.3158 69.3469 81.2313V81.2313ZM49.8962 100.78C49.9076 103.502 50.8645 105.771 52.2621 107.128L52.1857 88.9477L54.9928 88.9332L55.0741 108.141L57.8811 108.126L57.7998 88.9188L60.6069 88.9043L60.6839 107.087C62.1224 105.796 63.0072 103.435 62.9958 100.712L62.9455 88.8922L65.7543 88.8777L65.8033 100.698C65.8307 107.226 62.5015 112.535 58.3675 112.556L54.6243 112.576C50.5424 112.597 47.168 107.322 47.1406 100.794L47.0918 88.974L49.8971 88.9595L49.8962 100.78Z" fill="currentColor" stroke="#7C7272"/>
<path d="M158.87 35.4761C158.926 35.5247 158.967 35.592 158.987 35.6684C159.006 35.7447 159.004 35.8261 158.98 35.901C156.107 44.8683 151.906 60.9251 155.465 75.3888L156.701 80.9646C156.725 81.0726 156.727 81.1854 156.706 81.2944C156.686 81.4034 156.644 81.5058 156.583 81.5936C156.522 81.6814 156.445 81.7524 156.356 81.8012C156.267 81.8499 156.17 81.8752 156.071 81.8751H155.238C155.092 81.8758 154.949 81.8281 154.828 81.738C154.706 81.6479 154.61 81.5193 154.553 81.3683C153.659 79.0138 150.684 69.0906 150.449 65.2142C150.445 65.1161 150.407 65.0235 150.344 64.9555C150.282 64.8875 150.198 64.8492 150.111 64.8485H137.082C137 64.8484 136.921 64.8816 136.859 64.9421C136.797 65.0026 136.757 65.0863 136.746 65.1777L135.441 81.1616C135.416 81.3597 135.328 81.5409 135.194 81.6719C135.061 81.803 134.889 81.8751 134.712 81.8751H133.867C133.689 81.8751 133.518 81.7952 133.392 81.653C133.266 81.5109 133.195 81.318 133.195 81.117V64.9418C133.195 64.8819 133.183 64.8229 133.159 64.7691C133.001 64.3961 132.418 62.6829 133.195 59.173C133.914 55.9299 134.453 55.9055 135.351 55.9299C138.751 56.0215 148.271 56.6061 150.123 56.7212C150.208 56.7263 150.293 56.6939 150.358 56.6308C150.423 56.5677 150.464 56.4787 150.473 56.3823C150.736 53.8194 152.418 38.2887 154.747 35.6602C155.006 35.3404 155.318 35.0818 155.666 34.8993C156.014 34.7167 156.391 34.6139 156.775 34.5968C157.158 34.5797 157.541 34.6486 157.901 34.7995C158.26 34.9505 158.59 35.1804 158.87 35.4761V35.4761Z" fill="currentColor" stroke="#7C7272" stroke-linecap="round" stroke-linejoin="round"/>
<path d="M150.077 64.8485H154.029H150.077ZM132.836 64.8485H137.865Z" fill="currentColor"/>
<path d="M132.836 64.8485H137.865M150.077 64.8485H154.029H150.077Z" stroke="#7C7272" stroke-miterlimit="10"/>
<path d="M112.795 32.2681L111.931 29.3131C111.625 28.2696 110.959 27.5955 110.228 27.5955H89.4997C88.7699 27.5955 88.1067 28.2696 87.8003 29.3131L86.9365 32.2681C86.6697 33.1829 86.7163 34.2508 87.0598 35.0994C87.4034 35.9481 87.9985 36.4606 88.5839 36.4606L88.584 46.8033C88.584 47.6192 89.0029 48.2808 89.5197 48.2808H91.3911C91.9079 48.2808 92.3268 47.6192 92.3268 46.8033V36.4606H107.298V46.8033C107.298 47.6192 107.717 48.2808 108.234 48.2808H110.052C110.569 48.2808 110.988 47.6192 110.988 46.8033L111.093 36.4606C111.731 36.4606 112.326 35.947 112.669 35.0985C113.013 34.25 113.058 33.1823 112.795 32.2681V32.2681ZM93.2624 12.8202C93.2624 10.0979 94.2098 7.82432 95.6016 6.46038V24.6404H98.4087L98.4093 5.43258H101.216L101.216 24.6404H104.023L104.023 6.45761C105.467 7.74121 106.362 10.0979 106.362 12.8202L106.362 24.6404H109.17L109.17 12.8202C109.17 6.29231 105.818 1 101.684 1H97.9409C93.8589 1 90.5068 6.29231 90.5068 12.8202L90.5077 24.6404H93.313L93.2624 12.8202Z" fill="currentColor" stroke="#7C7272"/>
<path d="M69.3791 32.2681L68.5153 29.3131C68.2095 28.2696 67.5428 27.5955 66.8118 27.5955H46.0838C45.3539 27.5955 44.6908 28.2696 44.3843 29.3131L43.5205 32.2681C43.2537 33.1829 43.3003 34.2508 43.6439 35.0994C43.9875 35.9481 44.5826 36.4606 45.168 36.4606L45.168 46.8033C45.168 47.6192 45.587 48.2808 46.1037 48.2808H47.9751C48.492 48.2808 48.9108 47.6192 48.9108 46.8033V36.4606H63.8819V46.8033C63.8819 47.6192 64.3009 48.2808 64.8176 48.2808H66.6364C67.1532 48.2808 67.5721 47.6192 67.5721 46.8033L67.6773 36.4606C68.3153 36.4606 68.9101 35.947 69.2533 35.0985C69.5966 34.25 69.6422 33.1823 69.3791 32.2681V32.2681ZM49.8464 12.8202C49.8464 10.0979 50.7938 7.82432 52.1857 6.46038V24.6404H54.9928L54.9933 5.43258H57.8004L57.7998 24.6404H60.6069L60.6075 6.45761C62.0514 7.74121 62.9462 10.0979 62.9462 12.8202L62.9456 24.6404H65.7544L65.7537 12.8202C65.7537 6.29231 62.4022 1 58.2682 1H54.5249C50.4429 1 47.0908 6.29231 47.0908 12.8202L47.0917 24.6404H49.8971L49.8464 12.8202Z" fill="currentColor" stroke="#7C7272"/>
<path d="M134.298 36.6679H26.5065V78.5571H134.298V36.6679Z" fill="currentColor" stroke="#7C7272"/>
<path d="M30.9978 111.737V78.5571H35.1148V111.737H30.9978Z" fill="currentColor"/>
<path d="M124.192 111.737V78.5571H128.684V111.737H124.192Z" fill="currentColor"/>
<path d="M30.9978 111.737V78.5571H35.1148V111.737H30.9978Z" stroke="#7C7272"/>
<path d="M124.192 111.737V78.5571H128.684V111.737H124.192Z" stroke="#7C7272"/>
</svg>